<svg width="110" height="46" viewBox="0 0 110 46" fill="none" xmlns="http://www.w3.org/2000/svg">
<g clip-path="url(#clip0_4363_4776)">
<path d="M58.3912 16.8679C56.6655 16.8679 54.7288 16.9477 53.5169 17.2291C51.0069 17.8091 49.6474 18.7674 49.6474 22.1596C49.6474 25.2381 51.2427 26.0291 53.6396 26.2687C55.4022 26.419 57.1774 26.3224 58.9128 25.9815V16.8698H58.3912V16.8679ZM55.1545 31.7182C54.4668 31.7196 53.7794 31.6866 53.0951 31.6194C47.4595 31.0489 44.2266 27.6092 44.2266 22.1615C44.2266 16.6473 46.9379 13.2247 52.2801 11.9944C54.1746 11.5552 56.863 11.4772 58.909 11.4944V10.633C58.909 8.26379 58.4929 6.78446 57.6396 6.10944C56.4891 5.19674 53.841 5.15871 50.2034 5.97634C49.519 6.09652 48.8142 5.95129 48.2348 5.57068C47.6553 5.19007 47.2455 4.60319 47.0901 3.93141C46.9348 3.25962 47.0457 2.55431 47.3999 1.96133C47.7542 1.36834 48.3247 0.933042 48.9935 0.745435C54.5811 -0.526639 58.4027 -0.155854 61.0221 1.91103C63.2502 3.67368 64.3336 6.52776 64.3336 10.6406V28.1207C64.3338 28.7073 64.1406 29.2779 63.7833 29.7455C63.426 30.2131 62.9243 30.552 62.3547 30.7105C60.0114 31.3675 57.5896 31.709 55.1545 31.7258" fill="#FA70A8"/>
<path d="M72.4071 25.8256C73.4215 26.1355 74.8462 26.4226 76.2958 26.2363C80.1538 25.7381 82.2631 21.8743 82.2631 15.3523C82.2631 5.37541 78.104 5.37541 76.7368 5.37541C74.5451 5.37541 73.1568 5.91542 72.4013 6.34135L72.4071 25.8256ZM69.6957 46C68.9766 46 68.287 45.7167 67.7785 45.2125C67.27 44.7083 66.9844 44.0244 66.9844 43.3113V5.02935C66.9849 4.38276 67.2196 3.75787 67.6459 3.2686C67.9393 2.93395 70.6794 0 76.7426 0C80.8327 0 87.6897 1.99463 87.6897 15.3523C87.6897 20.2809 86.6408 24.2169 84.5718 27.0501C82.7022 29.6076 80.0829 31.1687 76.9957 31.568C75.4659 31.7526 73.916 31.6884 72.4071 31.3778V43.3171C72.4056 44.0291 72.1192 44.7115 71.6109 45.2145C71.1026 45.7175 70.4138 46 69.6957 46Z" fill="#FA70A8"/>
<path d="M95.3529 13.6754C96.862 13.7134 99.023 13.6754 100.53 13.3274C103.343 12.6771 104.085 11.8728 104.415 10.7053C104.745 9.53781 104.639 7.83031 103.821 6.75979C103.205 5.95357 102.208 5.56187 100.776 5.56187C98.1697 5.56187 96.3654 7.48044 95.6655 10.962C95.4989 11.8583 95.3945 12.7649 95.3529 13.6754ZM100.231 31.7582C97.9128 31.7582 95.9167 31.1878 94.2619 30.0469C91.3396 28.0428 89.8516 24.5517 89.8516 19.6726V18.6192C89.8516 15.2897 89.8401 12.4147 90.3348 9.92001C91.2744 5.2063 94.5035 0.175049 100.772 0.175049C104.758 0.175049 106.977 1.98333 108.137 3.49879C110.26 6.27301 110.269 9.88958 109.633 12.1447C108.39 16.5409 104.544 17.908 101.759 18.5526C99.6194 19.047 96.9905 19.0869 95.2801 19.0413V19.6669C95.2801 21.7356 95.6386 24.449 97.3471 25.6203C98.9943 26.7517 102.026 26.5806 105.884 25.1412C106.217 25.0163 106.572 24.9578 106.928 24.9689C107.284 24.98 107.635 25.0606 107.959 25.206C108.284 25.3514 108.577 25.5588 108.82 25.8163C109.064 26.0739 109.255 26.3765 109.38 26.707C109.506 27.0375 109.565 27.3893 109.554 27.7424C109.543 28.0955 109.462 28.443 109.315 28.765C109.168 29.0869 108.959 29.3771 108.7 29.6189C108.44 29.8607 108.135 30.0495 107.801 30.1743C104.992 31.222 102.465 31.7468 100.239 31.7468" fill="#FA70A8"/>
<path d="M34.4062 31.7143C32.2362 31.7429 30.1072 31.127 28.2931 29.9459C23.647 26.8922 21.9922 20.7257 21.9922 15.9721C21.9922 11.5988 23.6547 5.36579 28.343 2.2417C30.6804 0.682511 34.6708 -0.688436 40.4444 1.64085C40.7797 1.77 41.0858 1.96403 41.3447 2.21163C41.6037 2.45923 41.8104 2.75546 41.9528 3.08305C42.0951 3.41064 42.1703 3.76305 42.174 4.11975C42.1776 4.47645 42.1097 4.83031 41.9741 5.1607C41.8384 5.4911 41.6379 5.79143 41.3841 6.04421C41.1302 6.29698 40.8282 6.49714 40.4956 6.63303C40.163 6.76892 39.8065 6.83781 39.4467 6.83571C39.087 6.8336 38.7313 6.76053 38.4003 6.62075C35.5452 5.46657 33.179 5.49509 31.3688 6.70252C28.6364 8.52411 27.4226 12.6693 27.4226 15.9721C27.4226 19.429 28.6191 23.7053 31.296 25.4642C33.1464 26.6811 35.6756 26.6317 38.8126 25.3159C39.4642 25.0862 40.1797 25.1121 40.8126 25.3883C41.4456 25.6645 41.9482 26.1701 42.2177 26.8017C42.4871 27.4332 42.503 28.143 42.2622 28.7858C42.0213 29.4286 41.5418 29.9558 40.9219 30.2596C38.4291 31.3073 36.2604 31.7066 34.4119 31.7066" fill="#FA70A8"/>
<path d="M10.4195 31.7029C6.67649 31.7029 2.2106 29.5124 1.06393 28.6397C0.51304 28.1991 0.157705 27.5624 0.073813 26.8655C-0.0100791 26.1687 0.184123 25.4669 0.614939 24.9101C1.04576 24.3534 1.67904 23.9857 2.37953 23.8856C3.08002 23.7856 3.79221 23.9611 4.36397 24.3747C5.03701 24.8539 8.27569 26.3275 10.4195 26.3275C11.4894 26.3275 14.9831 26.0689 14.9831 22.7432C14.9831 20.7581 13.2478 19.1932 9.82504 18.0904C2.98336 15.8866 1.54714 11.884 1.54714 8.91397C1.54714 3.35792 6.57678 0.357422 11.3092 0.357422C14.4252 0.357422 17.8594 1.95274 18.241 2.13338C18.8784 2.44804 19.3655 2.99872 19.5969 3.66648C19.8283 4.33424 19.7855 5.06547 19.4778 5.70222C19.1701 6.33897 18.6221 6.83013 17.9523 7.0696C17.2824 7.30908 16.5445 7.27764 15.8978 6.98209C15.1634 6.63412 12.9065 5.73283 11.3092 5.73283C10.2395 5.74466 9.19189 6.03586 8.27185 6.57708C7.37062 7.14751 6.96986 7.86627 6.96986 8.91016C6.96986 9.55476 6.96987 11.5133 11.5009 12.9736C19.2477 15.4683 20.404 20.163 20.404 22.7394C20.404 28.8964 15.2267 31.6991 10.4195 31.6991" fill="#FA70A8"/>
</g>
<defs>
<clipPath id="clip0_4363_4776">
<rect width="110" height="46" fill="white"/>
</clipPath>
</defs>
</svg>
